<svg xmlns="http://www.w3.org/2000/svg" viewBox="0 0 100 100"><rect width="100" height="100" rx="22" fill="#12161F"/><g transform="translate(50 50) scale(0.78) translate(-50 -50)" style="color:#FFFFFF"><circle cx="50" cy="50" r="45" fill="none" stroke="currentColor" stroke-width="2.2"/><line x1="50" y1="5" x2="50" y2="15" stroke="currentColor" stroke-width="2.6" stroke-linecap="round" transform="rotate(0 50 50)"/><line x1="50" y1="5" x2="50" y2="15" stroke="currentColor" stroke-width="2.6" stroke-linecap="round" transform="rotate(90 50 50)"/><line x1="50" y1="5" x2="50" y2="15" stroke="currentColor" stroke-width="2.6" stroke-linecap="round" transform="rotate(180 50 50)"/><line x1="50" y1="5" x2="50" y2="15" stroke="currentColor" stroke-width="2.6" stroke-linecap="round" transform="rotate(270 50 50)"/><path d="M 43.94 53.85 A 7.00 7.70 0 1 1 56.06 53.85" fill="none" stroke="currentColor" stroke-width="2.0" stroke-linecap="round"/><path d="M 39.17 56.88 A 12.50 13.75 0 1 1 60.83 56.88" fill="none" stroke="currentColor" stroke-width="2.0" stroke-linecap="round"/><path d="M 34.41 59.90 A 18.00 19.80 0 1 1 65.59 59.90" fill="none" stroke="currentColor" stroke-width="2.0" stroke-linecap="round"/><path d="M 29.65 62.92 A 23.50 25.85 0 1 1 70.35 62.92" fill="none" stroke="currentColor" stroke-width="2.0" stroke-linecap="round"/><line x1="50" y1="70" x2="50" y2="78" stroke="currentColor" stroke-width="2.2" stroke-linecap="round"/></g></svg>