<svg xmlns="http://www.w3.org/2000/svg" viewBox="0 0 100 100"><rect width="100" height="100" rx="22" fill="#12161F"/><g transform="translate(50 50) scale(0.80) translate(-50 -50)" style="color:#FFFFFF"><path d="M 93.57 56.12 A 44.0 44.0 0 1 1 63.60 8.15" fill="none" stroke="currentColor" stroke-width="3.6" stroke-linecap="round"/><path d="M 84.20 62.45 A 36.4 36.4 0 0 1 13.60 50.00" fill="none" stroke="currentColor" stroke-width="3.3120000000000003" stroke-linecap="round"/><path d="M 42.40 50.00 A 7.6 7.6 0 0 1 57.60 50.00" fill="none" stroke="currentColor" stroke-width="3.3"/><path d="M 35.00 50.00 A 15.0 15.0 0 0 1 65.00 50.00" fill="none" stroke="currentColor" stroke-width="3.3"/><path d="M 27.60 50.00 A 22.4 22.4 0 0 1 72.40 50.00" fill="none" stroke="currentColor" stroke-width="3.3"/><path d="M 20.20 50.00 A 29.8 29.8 0 0 1 79.80 50.00" fill="none" stroke="currentColor" stroke-width="3.3"/><path d="M 12.80 50.00 A 37.2 37.2 0 0 1 87.20 50.00" fill="none" stroke="currentColor" stroke-width="3.3"/><line x1="50.0" y1="54.0" x2="50.0" y2="81.0" stroke="currentColor" stroke-width="3.3" stroke-linecap="round"/></g></svg>